<svg xmlns="http://www.w3.org/2000/svg" width="847.697" height="656" viewBox="0 0 847.697 656">
  <g id="landing_hero" transform="translate(0)">
    <path id="Path_1" data-name="Path 1" d="M213.747,759.288c26.423,19.035,60.664,19.991,93.762,17.652,4.622-.326,9.211-.709,13.757-1.122.027-.007.064,0,.091-.012.218-.021.437-.042.647-.054l2.807-.264-.22.419-.689,1.3c.248-.435.5-.861.743-1.3.073-.131.155-.261.227-.391,8.574-14.921,17.078-30.39,19.248-47.427,2.242-17.685-4.059-37.709-19.624-46.4a31.413,31.413,0,0,0-6.445-2.7c-.931-.283-1.874-.512-2.828-.715a33.665,33.665,0,0,0-39.149,43.762c-13.2-13.531-10.734-35.482-6.182-53.828s10.082-38.758.806-55.236c-5.156-9.172-14.224-14.862-24.4-17.154-.312-.067-.624-.135-.937-.193a49.13,49.13,0,0,0-35.3,6.185c-19.458,12.262-29.452,35.51-32.7,58.284C172.141,696.745,183.706,737.644,213.747,759.288Z" transform="translate(-176.154 -122)" fill="#f2f2f2"/>
    <path id="Path_2" data-name="Path 2" d="M222.278,700.541a83.518,83.518,0,0,0,5.764,23.535,72.52,72.52,0,0,0,11.26,18.392c9.5,11.424,22.054,20.012,35.691,25.735a133.73,133.73,0,0,0,32.517,8.737c4.622-.326,9.211-.709,13.757-1.122.027-.007.064,0,.091-.012.218-.021.437-.042.647-.054l2.807-.264-.22.419-.689,1.3c.248-.435.5-.861.743-1.3.073-.131.155-.261.227-.391a73.269,73.269,0,0,1-6.821-96.528c-.931-.283-1.874-.512-2.828-.715a77.3,77.3,0,0,0-7.051,11.679,75.742,75.742,0,0,0-6.535,47.12,77.438,77.438,0,0,0,19.62,38.625c-.883-.062-1.774-.134-2.646-.214-16.522-1.4-33.01-4.952-47.995-12.227a86.441,86.441,0,0,1-32.382-26.57c-9.076-12.516-13.075-27.572-13.762-42.874-.728-16.382,1.4-33.052,5.136-48.983a205.6,205.6,0,0,1,17.276-47.06,1.478,1.478,0,0,0-.587-1.951,1.257,1.257,0,0,0-.937-.193,1.1,1.1,0,0,0-.723.619c-.945,1.843-1.872,3.688-2.763,5.554A207.931,207.931,0,0,0,225.6,650.624C222.313,666.913,220.56,683.953,222.278,700.541Z" transform="translate(-176.154 -122)" fill="#fff"/>
    <path id="Path_3" data-name="Path 3" d="M1006.85,686h-437a17.019,17.019,0,0,1-17-17V139a17.019,17.019,0,0,1,17-17h437a17.019,17.019,0,0,1,17,17V669a17.019,17.019,0,0,1-17,17Zm-437-562a15.017,15.017,0,0,0-15,15V669a15.017,15.017,0,0,0,15,15h437a15.017,15.017,0,0,0,15-15V139a15.017,15.017,0,0,0-15-15Z" transform="translate(-176.154 -122)" fill="#3f3d56"/>
    <rect id="Rectangle_1" data-name="Rectangle 1" width="469" height="2" transform="translate(377.693 41.59)" fill="#3f3d56"/>
    <circle id="Ellipse_1" data-name="Ellipse 1" cx="8" cy="8" r="8" transform="translate(392.693 14)" fill="#3f3d56"/>
    <circle id="Ellipse_2" data-name="Ellipse 2" cx="8" cy="8" r="8" transform="translate(417.693 14)" fill="#3f3d56"/>
    <circle id="Ellipse_3" data-name="Ellipse 3" cx="8" cy="8" r="8" transform="translate(442.693 14)" fill="#3f3d56"/>
    <path id="Path_4" data-name="Path 4" d="M939.106,243h-312a13,13,0,1,1,0-26h312a13,13,0,1,1,0,26Zm-312-24a11,11,0,0,0,0,22h312a11,11,0,1,0,0-22Z" transform="translate(-176.154 -122)" fill="#3f3d56"/>
    <path id="Path_5" data-name="Path 5" d="M743.846,426h-123a17.019,17.019,0,0,1-17-17V308a17.019,17.019,0,0,1,17-17h123a17.019,17.019,0,0,1,17,17V409a17.019,17.019,0,0,1-17,17Zm-123-133a15.017,15.017,0,0,0-15,15V409a15.017,15.017,0,0,0,15,15h123a15.017,15.017,0,0,0,15-15V308a15.017,15.017,0,0,0-15-15Z" transform="translate(-176.154 -122)" fill="#3f3d56"/>
    <rect id="Rectangle_2" data-name="Rectangle 2" width="155" height="133" rx="16" transform="translate(640.693 174)" fill="#f2f2f2"/>
    <path id="Path_6" data-name="Path 6" d="M743.846,614h-123a17.019,17.019,0,0,1-17-17V496a17.019,17.019,0,0,1,17-17h123a17.019,17.019,0,0,1,17,17V597a17.019,17.019,0,0,1-17,17Zm-123-133a15.017,15.017,0,0,0-15,15V597a15.017,15.017,0,0,0,15,15h123a15.017,15.017,0,0,0,15-15V496a15.017,15.017,0,0,0-15-15Z" transform="translate(-176.154 -122)" fill="#3f3d56"/>
    <rect id="Rectangle_3" data-name="Rectangle 3" width="155" height="133" rx="16" transform="translate(640.693 362)" fill="#f2f2f2"/>
    <path id="Path_7" data-name="Path 7" d="M651.738,401.573h-.067l-13.99-.518a1.808,1.808,0,0,1-1.743-1.613c-.963-8.591-4.926-52.371,11.675-70.567a23.746,23.746,0,0,1,18.788-7.892.786.786,0,0,0,.721-.376l3.387-5.322a1.836,1.836,0,0,1,1.753-.831c2.715.328,16.556,1.877,22.377.192a1.822,1.822,0,0,1,1.923.592l4.447,5.436a.779.779,0,0,0,.649.3c2.262-.045,10.194.393,17.135,8.157,7.517,8.407,15.274,27.376,9.543,70a1.833,1.833,0,0,1-1.809,1.584H715.51a1.832,1.832,0,0,1-1.8-1.561l-3.6-24.836a.822.822,0,0,0-1.635.1l-.248,11.661a1.825,1.825,0,0,1-1.083,1.627c-3.928,1.727-24.683,9.827-47.622-.318a1.838,1.838,0,0,1-1.083-1.594l-.451-10.595a.822.822,0,0,0-1.638-.057l-2.8,24.817A1.831,1.831,0,0,1,651.738,401.573Z" transform="translate(-176.154 -122)" fill="#1dfea2"/>
    <path id="Path_8" data-name="Path 8" d="M709.612,584.539h-.01l-54.821-.347a1.637,1.637,0,0,1-1.613-1.444l-5.515-46.873a1.262,1.262,0,0,0-1.218-1.122c-4.352-.142-14.707-1.134-16.852-7.263-1.911-5.459,3.316-13.51,15.535-23.931a1.637,1.637,0,0,1,2.636.786l6.343,21.885a1.28,1.28,0,0,0,1.213.918l51.979.349a1.265,1.265,0,0,0,1.222-.891l7.058-22.458a1.634,1.634,0,0,1,2.551-.81c4.816,3.678,20.332,16.307,17.778,24.384-1.338,4.23-7.37,6.588-17.93,7.008a1.265,1.265,0,0,0-1.214,1.122l-5.517,47.242a1.633,1.633,0,0,1-1.624,1.446Z" transform="translate(-176.154 -122)" fill="#1dfea2"/>
    <path id="Path_9" data-name="Path 9" d="M949.846,387.153a115.565,115.565,0,0,0-47.505,21.039,8.812,8.812,0,0,0-3.788-4.5,13.3,13.3,0,0,0-3.844-1.615c-1.236-.315-2.423.436-3.513,1.518a19.893,19.893,0,0,0-3.126,4.628c-18.826-12.922-47.384-21.168-47.384-21.168v-2.584a14.266,14.266,0,0,1,.186-1.817c.1-.695.218-1.308.372-2.059,2.423-12.324,12-40.487,12-40.487h10.83l21,4.361,23.623-1.446,23.793-4.951,3.085-.646c5.145,4.038,10.984,32.305,13.278,44.339.291,1.526.517,2.786.686,3.715C949.741,386.531,949.846,387.153,949.846,387.153Z" transform="translate(-176.154 -122)" fill="#fff"/>
    <path id="Path_10" data-name="Path 10" d="M885.223,511.219h0s-5.031,1.258-12.832,22.389-10.566,48.434-10.566,48.434-4.387,7.429,14.339,7.926c0,0-1.506,4.906,9.059,4.153s9.045-.746,9.045-.746,6.793-4.277,9.813-3.524,4.906,1.009,8.175,3.773,13.717,1.638,13.841-.5a19.726,19.726,0,0,0,0-3.151s15.976,1.009,12.957-10.566-5.535-30.571-5.535-30.571-8.175-37.108-17.49-37.612S885.223,511.219,885.223,511.219Z" transform="translate(-176.154 -122)" fill="#fff"/>
    <circle id="Ellipse_4" data-name="Ellipse 4" cx="30" cy="30" r="30" transform="translate(162.64 293.596)" fill="#2f2e41"/>
    <circle id="Ellipse_5" data-name="Ellipse 5" cx="24.561" cy="24.561" r="24.561" transform="translate(170.599 304.531)" fill="#ffb8b8"/>
    <path id="Path_11" data-name="Path 11" d="M464.852,525.8a10.532,10.532,0,0,0-1.072,1.264l-49.562-1.751-5.669-10.631-17.162,6.458,8.206,19.8a8,8,0,0,0,8.263,4.889l56.085-6.158a10.5,10.5,0,1,0,.911-13.866Z" transform="translate(-176.154 -122)" fill="#ffb8b8"/>
    <path id="Path_12" data-name="Path 12" d="M384.785,530.7a4.812,4.812,0,0,1-2.643-3.017l-6.9-23.169a13.377,13.377,0,1,1,24.208-11.392l13.372,20.235a4.817,4.817,0,0,1-1.981,7.02L388.8,530.666A4.811,4.811,0,0,1,384.785,530.7Z" transform="translate(-176.154 -122)" fill="#ccc"/>
    <path id="Path_13" data-name="Path 13" d="M257.446,643.927l10.768-5.862-17.485-44.322-15.892,8.651Z" fill="#ffb8b8"/>
    <path id="Path_14" data-name="Path 14" d="M428.94,763.906l21.205-11.544h0a15.386,15.386,0,0,1,20.87,6.158l.239.439-34.72,18.9Z" transform="translate(-176.154 -122)" fill="#2f2e41"/>
    <path id="Path_15" data-name="Path 15" d="M138.959,643.975h12.259l5.833-47.288h-18.1Z" fill="#ffb8b8"/>
    <path id="Path_16" data-name="Path 16" d="M311.985,761.973H336.13a15.386,15.386,0,0,1,15.386,15.386v.5h-39.53Z" transform="translate(-176.154 -122)" fill="#2f2e41"/>
    <path id="Path_17" data-name="Path 17" d="M391.294,556.1l4,48,44.619,133.856a4,4,0,0,1-2.868,5.156l-13.675,3.256a4,4,0,0,1-4.5-2.091L361.827,631.121a2,2,0,0,0-3.739.471l-25.1,114.362a4,4,0,0,1-3.907,3.142H316.355a3.993,3.993,0,0,1-4-4.054c1.166-79.3-2.68-169.653,27.936-183.946l5-13Z" transform="translate(-176.154 -122)" fill="#2f2e41"/>
    <path id="Path_18" data-name="Path 18" d="M343.854,551.5,338.7,520.322a30.877,30.877,0,0,1,9.769-28.006,30.361,30.361,0,0,1,28.331-6.925c.292.078.585.159.878.241A30.783,30.783,0,0,1,399.9,512.979c.984,13.54.1,33.184-9.678,49.87l-.19.324Z" transform="translate(-176.154 -122)" fill="#ccc"/>
    <path id="Path_19" data-name="Path 19" d="M395.747,438.038a33.4,33.4,0,0,1-19.091,5.9,20.471,20.471,0,0,0,8.114,3.338,67.359,67.359,0,0,1-27.514.155,17.809,17.809,0,0,1-5.76-1.978,7.289,7.289,0,0,1-3.555-4.755c-.6-3.449,2.083-6.582,4.876-8.693a35.968,35.968,0,0,1,30.224-6.04c3.376.873,6.759,2.347,8.952,5.059s2.843,6.892.753,9.684Z" transform="translate(-176.154 -122)" fill="#2f2e41"/>
    <path id="Path_20" data-name="Path 20" d="M368.4,415.448c2.847-11.5-7.357-24.268-19.2-24.029-12.013.243-20.854,11.1-26.931,21.465S310.154,435,299,439.463a24.028,24.028,0,0,1-32.946-22.894c-1.5,12.593.577,26.219,8.7,35.959s23.233,14.13,34.1,7.584c6.2-3.739,10.169-10.237,13.438-16.7s6.178-13.279,11.131-18.564,12.612-8.792,19.506-6.569c2.736.883,5.191,2.6,8.018,3.126s6.386-.82,6.772-3.669Z" transform="translate(-176.154 -122)" fill="#2f2e41"/>
    <path id="Path_21" data-name="Path 21" d="M309.2,623.891a10.743,10.743,0,0,1,2.743-16.243l21.305-95.5,21.612,8.871L327.124,612.1A10.8,10.8,0,0,1,309.2,623.891Z" transform="translate(-176.154 -122)" fill="#ffb8b8"/>
    <path id="Path_22" data-name="Path 22" d="M324.809,525.85a4.812,4.812,0,0,1-.336-4l8.193-22.745a13.377,13.377,0,1,1,26.245,5.2l-1.245,24.222a4.817,4.817,0,0,1-5.76,4.475l-23.851-4.795a4.812,4.812,0,0,1-3.246-2.357Z" transform="translate(-176.154 -122)" fill="#ccc"/>
    <path id="Path_22-2" data-name="Path 22" d="M499.368,515.14l-.355-.049,1.337-9.723a5.68,5.68,0,0,0-4.854-6.4l-20.6-2.832a5.68,5.68,0,0,0-6.4,4.854l-7.332,53.341a5.68,5.68,0,0,0,4.854,6.4l20.6,2.832a5.68,5.68,0,0,0,6.4-4.854l5.044-36.7.355.049Z" transform="translate(-176.154 -122)" fill="#3f3d56"/>
    <path id="Path_23" data-name="Path 23" d="M494.849,501.82l-2.565-.353a1.922,1.922,0,0,1-2.124,2.381L478.9,502.3a1.922,1.922,0,0,1-1.4-2.866l-2.4-.329a4.046,4.046,0,0,0-4.56,3.457l-6.984,50.8a4.046,4.046,0,0,0,3.458,4.56l19.743,2.714a4.046,4.046,0,0,0,4.56-3.458h0l6.984-50.8a4.046,4.046,0,0,0-3.458-4.56Z" transform="translate(-176.154 -122)" fill="#fff"/>
    <circle id="Ellipse_6" data-name="Ellipse 6" cx="11" cy="11" r="11" transform="translate(293.693 400)" fill="#1dfea2"/>
    <path id="Path_23-2" data-name="Path 23" d="M479.756,537.2a1.141,1.141,0,0,1-.686-.228l-.012-.009-2.585-1.979a1.148,1.148,0,0,1,1.4-1.823l1.674,1.284,3.957-5.16a1.148,1.148,0,0,1,1.61-.213l-.025.033.025-.033a1.15,1.15,0,0,1,.213,1.61l-4.654,6.07A1.149,1.149,0,0,1,479.756,537.2Z" transform="translate(-176.154 -122)" fill="#fff"/>
    <path id="Path_24" data-name="Path 24" d="M582.228,778h-381a1,1,0,0,1,0-2h381a1,1,0,0,1,0,2Z" transform="translate(-176.154 -122)" fill="#3f3d56"/>
  </g>
</svg>
